<svg width="24"
  height="24"
  viewBox="0 0 24 24"
  fill="none"
  xmlns="http://www.w3.org/2000/svg">
  <g id="Sinaptica Color">
    <path id="Subtract"
      fill-rule="evenodd"
      clip-rule="evenodd"
      d="M12 21C16.9706 21 21 16.9706 21 12C21 7.02944 16.9706 3 12 3C7.02944 3 3 7.02944 3 12C3 16.9706 7.02944 21 12 21ZM6.39453 11.1777C6.83594 11.5801 7.53906 11.9199 8.50391 12.1973C9.27344 12.4199 9.80469 12.6465 10.0977 12.877C10.3906 13.1035 10.5371 13.4258 10.5371 13.8438C10.5371 14.2617 10.3789 14.5918 10.0625 14.834C9.74609 15.0762 9.29102 15.1973 8.69727 15.1973C8.06055 15.1973 7.55078 15.0488 7.16797 14.752C6.78906 14.4512 6.59961 14.043 6.59961 13.5273H5.46875C5.46875 14.0234 5.60547 14.4668 5.87891 14.8574C6.15625 15.248 6.54883 15.5566 7.05664 15.7832C7.56445 16.0059 8.11133 16.1172 8.69727 16.1172C9.59961 16.1172 10.3203 15.9102 10.8594 15.4961C11.3984 15.0781 11.668 14.5234 11.668 13.832C11.668 13.3984 11.5703 13.0215 11.375 12.7012C11.1836 12.3809 10.8867 12.1016 10.4844 11.8633C10.0859 11.6211 9.53125 11.4004 8.82031 11.2012C8.11328 11.002 7.61133 10.7832 7.31445 10.5449C7.02148 10.3027 6.875 10.0078 6.875 9.66016C6.875 9.22656 7.0293 8.88867 7.33789 8.64648C7.65039 8.40039 8.08398 8.27734 8.63867 8.27734C9.23633 8.27734 9.69922 8.42578 10.0273 8.72266C10.3555 9.01562 10.5195 9.41992 10.5195 9.93555H11.6504C11.6504 9.46289 11.5234 9.02734 11.2695 8.62891C11.0195 8.23047 10.6641 7.91797 10.2031 7.69141C9.74609 7.46484 9.22461 7.35156 8.63867 7.35156C7.7793 7.35156 7.08008 7.57227 6.54102 8.01367C6.00586 8.45117 5.73828 9.00586 5.73828 9.67773C5.73828 10.2715 5.95703 10.7715 6.39453 11.1777ZM14.0059 10.457L13.9707 9.66016H12.9453V16H14.0293V11.4824C14.1777 11.1777 14.3848 10.9316 14.6504 10.7441C14.916 10.5566 15.2246 10.4629 15.5762 10.4629C16.0098 10.4629 16.3281 10.5723 16.5312 10.791C16.7383 11.0098 16.8438 11.3477 16.8477 11.8047V16H17.9316V11.8105C17.9199 10.2988 17.2441 9.54297 15.9043 9.54297C15.123 9.54297 14.4902 9.84766 14.0059 10.457Z"
      fill="#D85830"/>
  </g>
</svg>