<svg xmlns="http://www.w3.org/2000/svg" style="display: none;">
<!-- 
  **
  * Important Rules:
  * - <symbol> should always have attribute fill="none"
  * - Set fill="currentColor" for any symbol's children tags with the attribute defined
  **
 -->
<!-- Sinaptica -->
  <symbol id="sinaptica" viewBox="0 0 24 24" stroke="none">
    <path fill-rule="evenodd" clip-rule="evenodd" d="M12 21C16.9706 21 21 16.9706 21 12C21 7.02944 16.9706 3 12 3C7.02944 3 3 7.02944 3 12C3 16.9706 7.02944 21 12 21ZM6.39453 11.1777C6.83594 11.5801 7.53906 11.9199 8.50391 12.1973C9.27344 12.4199 9.80469 12.6465 10.0977 12.877C10.3906 13.1035 10.5371 13.4258 10.5371 13.8438C10.5371 14.2617 10.3789 14.5918 10.0625 14.834C9.74609 15.0762 9.29102 15.1973 8.69727 15.1973C8.06055 15.1973 7.55078 15.0488 7.16797 14.752C6.78906 14.4512 6.59961 14.043 6.59961 13.5273H5.46875C5.46875 14.0234 5.60547 14.4668 5.87891 14.8574C6.15625 15.248 6.54883 15.5566 7.05664 15.7832C7.56445 16.0059 8.11133 16.1172 8.69727 16.1172C9.59961 16.1172 10.3203 15.9102 10.8594 15.4961C11.3984 15.0781 11.668 14.5234 11.668 13.832C11.668 13.3984 11.5703 13.0215 11.375 12.7012C11.1836 12.3809 10.8867 12.1016 10.4844 11.8633C10.0859 11.6211 9.53125 11.4004 8.82031 11.2012C8.11328 11.002 7.61133 10.7832 7.31445 10.5449C7.02148 10.3027 6.875 10.0078 6.875 9.66016C6.875 9.22656 7.0293 8.88867 7.33789 8.64648C7.65039 8.40039 8.08398 8.27734 8.63867 8.27734C9.23633 8.27734 9.69922 8.42578 10.0273 8.72266C10.3555 9.01562 10.5195 9.41992 10.5195 9.93555H11.6504C11.6504 9.46289 11.5234 9.02734 11.2695 8.62891C11.0195 8.23047 10.6641 7.91797 10.2031 7.69141C9.74609 7.46484 9.22461 7.35156 8.63867 7.35156C7.7793 7.35156 7.08008 7.57227 6.54102 8.01367C6.00586 8.45117 5.73828 9.00586 5.73828 9.67773C5.73828 10.2715 5.95703 10.7715 6.39453 11.1777ZM14.0059 10.457L13.9707 9.66016H12.9453V16H14.0293V11.4824C14.1777 11.1777 14.3848 10.9316 14.6504 10.7441C14.916 10.5566 15.2246 10.4629 15.5762 10.4629C16.0098 10.4629 16.3281 10.5723 16.5312 10.791C16.7383 11.0098 16.8438 11.3477 16.8477 11.8047V16H17.9316V11.8105C17.9199 10.2988 17.2441 9.54297 15.9043 9.54297C15.123 9.54297 14.4902 9.84766 14.0059 10.457Z"/>
  </symbol>
  <!-- Home -->
  <symbol id="home" viewBox="0 0 24 24" fill="none">
    <path d="M5 12.7596C5 11.4019 5 10.723 5.27446 10.1262C5.54892 9.52949 6.06437 9.08769 7.09525 8.20407L8.09525 7.34693C9.95857 5.7498 10.8902 4.95123 12 4.95123C13.1098 4.95123 14.0414 5.7498 15.9047 7.34693L16.9047 8.20407C17.9356 9.08769 18.4511 9.52949 18.7255 10.1262C19 10.723 19 11.4019 19 12.7596V17C19 18.8856 19 19.8284 18.4142 20.4142C17.8284 21 16.8856 21 15 21H9C7.11438 21 6.17157 21 5.58579 20.4142C5 19.8284 5 18.8856 5 17V12.7596Z" stroke-width="2"/>
    <path d="M14.5 21V16C14.5 15.4477 14.0523 15 13.5 15H10.5C9.94772 15 9.5 15.4477 9.5 16V21" stroke-width="2" stroke-linecap="round" stroke-linejoin="round"/>
  </symbol>
  <!-- Article -->
  <symbol id="article" viewBox="0 0 24 24" fill="none">
    <rect x="5"
      y="4"
      width="14"
      height="17"
      rx="2"
      stroke-width="2"/>
    <path d="M9 9H15" stroke-width="2" stroke-linecap="round"/>
    <path d="M9 13H15" stroke-width="2" stroke-linecap="round"/>
    <path d="M9 17H13" stroke-width="2" stroke-linecap="round"/>
  </symbol>
  <!-- Search -->
  <symbol id="search" viewBox="0 0 24 24" fill="none">
    <circle cx="11" cy="11" r="7" stroke-width="2"/>
    <path d="M11 8C10.606 8 10.2159 8.0776 9.85195 8.22836C9.48797 8.37913 9.15726 8.6001 8.87868 8.87868C8.6001 9.15726 8.37913 9.48797 8.22836 9.85195C8.0776 10.2159 8 10.606 8 11" stroke-width="2" stroke-linecap="round"/>
    <path d="M20 20L17 17" stroke-width="2" stroke-linecap="round"/>
  </symbol>
  <!-- Add -->
  <symbol id="add" viewBox="0 0 24 24" fill="none">
    <circle cx="12" cy="12" r="9" stroke-width="2"/>
    <path d="M12 15L12 9" stroke-width="2" stroke-linecap="square"/>
    <path d="M15 12L9 12" stroke-width="2" stroke-linecap="square"/>
  </symbol>
  <!-- Post -->
  <symbol id="post" viewBox="0 0 24 24" fill="none">
    <path d="M3 7C3 5.11438 3 4.17157 3.58579 3.58579C4.17157 3 5.11438 3 7 3H17C18.8856 3 19.8284 3 20.4142 3.58579C21 4.17157 21 5.11438 21 7V17C21 18.8856 21 19.8284 20.4142 20.4142C19.8284 21 18.8856 21 17 21H7C5.11438 21 4.17157 21 3.58579 20.4142C3 19.8284 3 18.8856 3 17V7Z" stroke-width="2"/>
    <path d="M3 7H6C6.98142 7 7.47214 7 7.89443 7.21115C8.31672 7.42229 8.61115 7.81486 9.2 8.6L9.8 9.4C10.3889 10.1851 10.6833 10.5777 11.1056 10.7889C11.5279 11 12.0186 11 13 11H18C18.9319 11 19.3978 11 19.7654 10.8478C20.2554 10.6448 20.6448 10.2554 20.8478 9.76537C21 9.39782 21 8.93188 21 8V8" stroke-width="2"/>
    <path d="M7 16H15" stroke-width="2" stroke-linecap="round"/>
  </symbol>
  <!-- Project -->
  <symbol id="project" viewBox="0 0 24 24" fill="none">
    <path d="M12 4L5 7L12 10L19 7L12 4Z" stroke-width="2" stroke-linejoin="round"/>
    <path fill-rule="evenodd" clip-rule="evenodd" d="M7.02545 10.044L4.60608 11.0809C4.2384 11.2385 4 11.6 4 12C4 12.4001 4.2384 12.7616 4.60608 12.9192L11.6061 15.9192C11.8576 16.027 12.1424 16.027 12.3939 15.9192L19.3939 12.9192C19.7616 12.7616 20 12.4001 20 12C20 11.6 19.7616 11.2385 19.3939 11.0809L16.9746 10.044L14.436 11.132L16.4614 12L12 13.9121L7.53859 12L9.56404 11.132L7.02545 10.044Z"/>
    <path fill-rule="evenodd" clip-rule="evenodd" d="M7.02545 15.044L4.60608 16.0809C4.2384 16.2385 4 16.6 4 17C4 17.4001 4.2384 17.7616 4.60608 17.9192L11.6061 20.9192C11.8576 21.027 12.1424 21.027 12.3939 20.9192L19.3939 17.9192C19.7616 17.7616 20 17.4001 20 17C20 16.6 19.7616 16.2385 19.3939 16.0809L16.9746 15.044L14.436 16.132L16.4614 17L12 18.9121L7.53859 17L9.56404 16.132L7.02545 15.044Z"/>
  </symbol>
  <!-- Question -->
  <symbol id="question" viewBox="0 0 24 24" fill="none">
    <path d="M19.3259 5.77772L18.4944 6.33329L18.4944 6.33329L19.3259 5.77772ZM19.3259 16.2223L18.4944 15.6667L18.4944 15.6667L19.3259 16.2223ZM18.2223 17.3259L17.6667 16.4944L17.6667 16.4944L18.2223 17.3259ZM14 17.9986L13.9956 16.9986C13.4451 17.001 13 17.4481 13 17.9986H14ZM14 18L14.8944 18.4472C14.9639 18.3084 15 18.1552 15 18H14ZM10 18H9C9 18.1552 9.03615 18.3084 9.10557 18.4472L10 18ZM10 17.9986H11C11 17.4481 10.5549 17.001 10.0044 16.9986L10 17.9986ZM5.77772 17.3259L6.33329 16.4944L6.33329 16.4944L5.77772 17.3259ZM4.67412 16.2223L5.50559 15.6667L5.50559 15.6667L4.67412 16.2223ZM4.67412 5.77772L5.50559 6.33329L5.50559 6.33329L4.67412 5.77772ZM5.77772 4.67412L6.33329 5.50559L6.33329 5.50559L5.77772 4.67412ZM18.2223 4.67412L17.6667 5.50559L17.6667 5.50559L18.2223 4.67412ZM21 11C21 9.61635 21.0012 8.50334 20.9106 7.61264C20.8183 6.70523 20.6225 5.91829 20.1573 5.22215L18.4944 6.33329C18.7034 6.64604 18.8446 7.06578 18.9209 7.81505C18.9988 8.58104 19 9.57473 19 11H21ZM20.1573 16.7779C20.6225 16.0817 20.8183 15.2948 20.9106 14.3874C21.0012 13.4967 21 12.3836 21 11H19C19 12.4253 18.9988 13.419 18.9209 14.1849C18.8446 14.9342 18.7034 15.354 18.4944 15.6667L20.1573 16.7779ZM18.7779 18.1573C19.3238 17.7926 19.7926 17.3238 20.1573 16.7779L18.4944 15.6667C18.2755 15.9943 17.9943 16.2755 17.6667 16.4944L18.7779 18.1573ZM14.0044 18.9986C15.0785 18.9939 15.9763 18.9739 16.7267 18.8701C17.4931 18.7642 18.1699 18.5636 18.7779 18.1573L17.6667 16.4944C17.3934 16.6771 17.0378 16.8081 16.4528 16.889C15.8518 16.9721 15.0792 16.9939 13.9956 16.9986L14.0044 18.9986ZM15 18V17.9986H13V18H15ZM13.7889 20.6584L14.8944 18.4472L13.1056 17.5528L12 19.7639L13.7889 20.6584ZM10.2111 20.6584C10.9482 22.1325 13.0518 22.1325 13.7889 20.6584L12 19.7639L12 19.7639L10.2111 20.6584ZM9.10557 18.4472L10.2111 20.6584L12 19.7639L10.8944 17.5528L9.10557 18.4472ZM9 17.9986V18H11V17.9986H9ZM5.22215 18.1573C5.83014 18.5636 6.50685 18.7642 7.2733 18.8701C8.02368 18.9739 8.92154 18.9939 9.99564 18.9986L10.0044 16.9986C8.92075 16.9939 8.14815 16.9721 7.54716 16.889C6.96223 16.8081 6.60665 16.6771 6.33329 16.4944L5.22215 18.1573ZM3.84265 16.7779C4.20744 17.3238 4.6762 17.7926 5.22215 18.1573L6.33329 16.4944C6.00572 16.2755 5.72447 15.9943 5.50559 15.6667L3.84265 16.7779ZM3 11C3 12.3836 2.99879 13.4967 3.0894 14.3874C3.18171 15.2948 3.3775 16.0817 3.84265 16.7779L5.50559 15.6667C5.29662 15.354 5.15535 14.9342 5.07913 14.1849C5.00121 13.419 5 12.4253 5 11H3ZM3.84265 5.22215C3.3775 5.91829 3.18171 6.70523 3.0894 7.61264C2.99879 8.50334 3 9.61635 3 11H5C5 9.57473 5.00121 8.58104 5.07913 7.81505C5.15535 7.06578 5.29662 6.64604 5.50559 6.33329L3.84265 5.22215ZM5.22215 3.84265C4.6762 4.20744 4.20744 4.6762 3.84265 5.22215L5.50559 6.33329C5.72447 6.00572 6.00572 5.72447 6.33329 5.50559L5.22215 3.84265ZM11 3C9.61635 3 8.50334 2.99879 7.61264 3.0894C6.70523 3.18171 5.91829 3.3775 5.22215 3.84265L6.33329 5.50559C6.64604 5.29662 7.06578 5.15535 7.81505 5.07913C8.58104 5.00121 9.57473 5 11 5V3ZM13 3H11V5H13V3ZM18.7779 3.84265C18.0817 3.3775 17.2948 3.18171 16.3874 3.0894C15.4967 2.99879 14.3836 3 13 3V5C14.4253 5 15.419 5.00121 16.1849 5.07913C16.9342 5.15535 17.354 5.29662 17.6667 5.50559L18.7779 3.84265ZM20.1573 5.22215C19.7926 4.6762 19.3238 4.20744 18.7779 3.84265L17.6667 5.50559C17.9943 5.72447 18.2755 6.00572 18.4944 6.33329L20.1573 5.22215Z"/>
    <path d="M10.8638 12.5991C10.8638 12.0978 10.9246 11.6986 11.0464 11.4014C11.1681 11.1042 11.3901 10.8123 11.7124 10.5259C12.0382 10.2358 12.2549 10.0013 12.3623 9.82227C12.4697 9.63965 12.5234 9.44808 12.5234 9.24756C12.5234 8.64242 12.2441 8.33984 11.6855 8.33984C11.4206 8.33984 11.2075 8.4222 11.0464 8.58691C10.8888 8.74805 10.8065 8.97184 10.7993 9.2583H9.2417C9.24886 8.57438 9.46908 8.03906 9.90234 7.65234C10.3392 7.26562 10.9336 7.07227 11.6855 7.07227C12.4447 7.07227 13.0337 7.25667 13.4526 7.62549C13.8716 7.99072 14.0811 8.50814 14.0811 9.17773C14.0811 9.4821 14.013 9.77035 13.877 10.0425C13.7409 10.311 13.5028 10.61 13.1626 10.9395L12.7275 11.353C12.4554 11.6144 12.2996 11.9206 12.2603 12.2715L12.2388 12.5991H10.8638ZM10.708 14.248C10.708 14.0081 10.7886 13.8112 10.9497 13.6572C11.1144 13.4997 11.3239 13.4209 11.5781 13.4209C11.8324 13.4209 12.04 13.4997 12.2012 13.6572C12.3659 13.8112 12.4482 14.0081 12.4482 14.248C12.4482 14.4844 12.3677 14.6795 12.2065 14.8335C12.049 14.9875 11.8395 15.0645 11.5781 15.0645C11.3167 15.0645 11.1055 14.9875 10.9443 14.8335C10.7868 14.6795 10.708 14.4844 10.708 14.248Z"/>
  </symbol>
  <!-- Settings -->
  <symbol id="settings" viewBox="0 0 24 24" fill="none">
    <ellipse cx="7"
      cy="7"
      rx="3"
      ry="3"
      transform="rotate(90 7 7)"
      stroke-width="2"
      stroke-linecap="round"/>
    <path d="M9.5 5H18C19.1046 5 20 5.89543 20 7V7C20 8.10457 19.1046 9 18 9H9.5" stroke-width="2" stroke-linecap="round"/>
    <ellipse rx="3"
      ry="3"
      transform="matrix(4.37114e-08 1 1 -4.37114e-08 17 17)"
      stroke-width="2"
      stroke-linecap="round"/>
    <path d="M14.5 15H6C4.89543 15 4 15.8954 4 17V17C4 18.1046 4.89543 19 6 19H14.5" stroke-width="2" stroke-linecap="round"/>
  </symbol>
  <!-- User -->
  <symbol id="user" viewBox="0 0 24 24" fill="none">
    <circle cx="12" cy="10" r="3" stroke-linecap="round"/>
    <circle cx="12" cy="12" r="9"/>
    <path d="M18 18.7059C17.6461 17.6427 16.8662 16.7033 15.7814 16.0332C14.6966 15.3632 13.3674 15 12 15C10.6326 15 9.30341 15.3632 8.21858 16.0332C7.13375 16.7033 6.35391 17.6427 6 18.7059" stroke-linecap="round"/>
  </symbol>
  <!-- UserCircle -->
  <symbol id="user-circle" viewBox="0 0 24 24" fill="none">
    <circle cx="12"
      cy="10"
      r="3"
      fill="currentColor"
      stroke-width="2"
      stroke-linecap="round"/>
    <circle cx="12" cy="12" r="9" stroke-width="2"/>
    <path d="M17.7805 18.8264C17.9076 18.7566 17.9678 18.6055 17.914 18.4708C17.5284 17.5045 16.7856 16.6534 15.7814 16.0332C14.6966 15.3632 13.3674 15 12 15C10.6326 15 9.30341 15.3632 8.21858 16.0332C7.21444 16.6534 6.4716 17.5045 6.08598 18.4708C6.03223 18.6055 6.09236 18.7566 6.21948 18.8264C9.81971 20.803 14.1803 20.803 17.7805 18.8264Z" fill="currentColor"/>
  </symbol>
  <!-- Google -->
  <symbol id="google" viewBox="0 0 512 512" fill="none">
    <path style="fill:#FBBB00;" d="M113.47,309.408L95.648,375.94l-65.139,1.378C11.042,341.211,0,299.9,0,256
	c0-42.451,10.324-82.483,28.624-117.732h0.014l57.992,10.632l25.404,57.644c-5.317,15.501-8.215,32.141-8.215,49.456
	C103.821,274.792,107.225,292.797,113.47,309.408z"/>
    <path style="fill:#518EF8;" d="M507.527,208.176C510.467,223.662,512,239.655,512,256c0,18.328-1.927,36.206-5.598,53.451
	c-12.462,58.683-45.025,109.925-90.134,146.187l-0.014-0.014l-73.044-3.727l-10.338-64.535
	c29.932-17.554,53.324-45.025,65.646-77.911h-136.89V208.176h138.887L507.527,208.176L507.527,208.176z"/>
    <path style="fill:#28B446;" d="M416.253,455.624l0.014,0.014C372.396,490.901,316.666,512,256,512
	c-97.491,0-182.252-54.491-225.491-134.681l82.961-67.91c21.619,57.698,77.278,98.771,142.53,98.771
	c28.047,0,54.323-7.582,76.87-20.818L416.253,455.624z"/>
    <path style="fill:#F14336;" d="M419.404,58.936l-82.933,67.896c-23.335-14.586-50.919-23.012-80.471-23.012
	c-66.729,0-123.429,42.957-143.965,102.724l-83.397-68.276h-0.014C71.23,56.123,157.06,0,256,0
	C318.115,0,375.068,22.126,419.404,58.936z"/>
  </symbol>
  <!-- GitHub -->
  <symbol id="github" viewBox="0 0 24 24">
    <path d="M12 0c-6.626 0-12 5.373-12 12 0 5.302 3.438 9.8 8.207 11.387.599.111.793-.261.793-.577v-2.234c-3.338.726-4.033-1.416-4.033-1.416-.546-1.387-1.333-1.756-1.333-1.756-1.089-.745.083-.729.083-.729 1.205.084 1.839 1.237 1.839 1.237 1.07 1.834 2.807 1.304 3.492.997.107-.775.418-1.305.762-1.604-2.665-.305-5.467-1.334-5.467-5.931 0-1.311.469-2.381 1.236-3.221-.124-.303-.535-1.524.117-3.176 0 0 1.008-.322 3.301 1.23.957-.266 1.983-.399 3.003-.404 1.02.005 2.047.138 3.006.404 2.291-1.552 3.297-1.23 3.297-1.23.653 1.653.242 2.874.118 3.176.77.84 1.235 1.911 1.235 3.221 0 4.609-2.807 5.624-5.479 5.921.43.372.823 1.102.823 2.222v3.293c0 .319.192.694.801.576 4.765-1.589 8.199-6.086 8.199-11.386 0-6.627-5.373-12-12-12z"/>
  </symbol>

  <!-- Email -->
  <symbol id="email" viewBox="0 0 24 24">
  <path fill-rule="evenodd" clip-rule="evenodd" d="M3.0132 9.15129C3 9.69022 3 10.3021 3 11V13C3 15.8284 3 17.2426 3.87868 18.1213C4.75736 19 6.17157 19 9 19H15C17.8284 19 19.2426 19 20.1213 18.1213C21 17.2426 21 15.8284 21 13V11C21 10.3021 21 9.69022 20.9868 9.15129L12.9713 13.6044C12.3672 13.9399 11.6328 13.9399 11.0287 13.6044L3.0132 9.15129ZM3.24297 7.02971C3.32584 7.05052 3.4074 7.08237 3.48564 7.12584L12 11.856L20.5144 7.12584C20.5926 7.08237 20.6742 7.05052 20.757 7.02971C20.6271 6.55619 20.4276 6.18491 20.1213 5.87868C19.2426 5 17.8284 5 15 5H9C6.17157 5 4.75736 5 3.87868 5.87868C3.57245 6.18491 3.37294 6.55619 3.24297 7.02971Z" fill="currentColor"/>
  </symbol>

</svg>